<svg height="512pt" viewBox="0 0 512 512" width="512pt" xmlns="http://www.w3.org/2000/svg"><path d="m512 167v330c0 8.398438-6.597656 15-15 15h-452c-22.800781 0-45-18.601562-45-45 0-24.902344 20.097656-75 45-75l20.699219-75 54.300781-165h377c8.402344 0 15 6.597656 15 15zm0 0" fill="#5aaae7"/><path d="m512 167v330c0 8.398438-6.597656 15-15 15h-196v-360h196c8.402344 0 15 6.597656 15 15zm0 0" fill="#3d9ae2"/><path d="m105 482c8.398438 0 15-6.597656 15-15v-315c0-32.699219-26.699219-60-60-60-33 0-60 27-60 60v315c0-24.902344 20.097656-45 45-45 24.898438 0 45 20.097656 45 45 0 8.402344 6.597656 15 15 15zm0 0" fill="#96c8ef"/><path d="m451 15v422c0 8.398438-6.597656 15-15 15h-90c-8.402344 0-15-6.601562-15-15v-45l15-15-15-15v-30l15-15-15-15v-30l15-15-15-15v-30l15-15-15-15v-30l15-15-15-15v-30l15-15-15-15v-47c0-8.402344 6.597656-15 15-15h90c8.402344 0 15 6.597656 15 15zm0 0" fill="#ffd400"/><path d="m451 15v422c0 8.398438-6.597656 15-15 15h-45v-452h45c8.402344 0 15 6.597656 15 15zm0 0" fill="#fdbf00"/><g fill="#e68a44"><path d="m361 77c0-8.289062-6.710938-15-15-15h-15v30h15c8.289062 0 15-6.710938 15-15zm0 0"/><path d="m361 137c0-8.289062-6.710938-15-15-15h-15v30h15c8.289062 0 15-6.710938 15-15zm0 0"/><path d="m361 197c0-8.289062-6.710938-15-15-15h-15v30h15c8.289062 0 15-6.710938 15-15zm0 0"/><path d="m361 257c0-8.289062-6.710938-15-15-15h-15v30h15c8.289062 0 15-6.710938 15-15zm0 0"/><path d="m361 317c0-8.289062-6.710938-15-15-15h-15v30h15c8.289062 0 15-6.710938 15-15zm0 0"/><path d="m361 377c0-8.289062-6.710938-15-15-15h-15v30h15c8.289062 0 15-6.710938 15-15zm0 0"/></g><path d="m271 92v240l-34.199219 30h-21.601562l-34.199219-30v-240l30-30h30zm0 0" fill="#cb671b"/><path d="m271 92v240l-34.199219 30h-10.800781v-300h15zm0 0" fill="#9e5015"/><path d="m271 45v47h-90v-47c0-24.902344 20.097656-45 45-45s45 20.097656 45 45zm0 0" fill="#4a696f"/><path d="m271 45v47h-45v-92c24.902344 0 45 20.097656 45 45zm0 0" fill="#384949"/><path d="m271 332-30.902344 109.800781c-1.796875 6-7.5 10.199219-14.097656 10.199219s-12.300781-4.199219-14.097656-10.199219l-30.902344-109.800781zm0 0" fill="#f8e5ca"/><path d="m226 332h45l-30.902344 109.800781c-1.796875 6-7.5 10.199219-14.097656 10.199219zm0 0" fill="#f1c992"/></svg>