<svg height="512pt" viewBox="0 -91 512 512" width="512pt" xmlns="http://www.w3.org/2000/svg"><path d="m482 255v45h-451v-45c0-103.5 69.902344-190.5 165-216.601562v-8.398438c0-8.402344 6.597656-15 15-15h90c8.402344 0 15 6.597656 15 15v8.398438c95.097656 26.101562 166 113.101562 166 216.601562zm0 0" fill="#fdbf00"/><path d="m482 255v45h-226v-285h45c8.402344 0 15 6.597656 15 15v8.398438c95.097656 26.101562 166 113.101562 166 216.601562zm0 0" fill="#ff9f00"/><path d="m392 75v90c0 8.398438-6.597656 15-15 15s-15-6.601562-15-15v-90c0-8.402344-7.597656-15-16-15h-15v75c0 8.398438-6.597656 15-15 15s-15-6.601562-15-15v-90c0-8.402344-6.597656-15-15-15h-60c-8.402344 0-15 6.597656-15 15v90c0 8.398438-6.597656 15-15 15s-15-6.601562-15-15v-75h-15c-8.402344 0-15 6.597656-15 15v90c0 8.398438-6.597656 15-15 15s-15-6.601562-15-15v-90c0-24.902344 20.097656-45 45-45h17.699219c6.300781-17.402344 22.800781-30 42.300781-30h60c19.5 0 36 12.597656 42.300781 30h17.699219c24.902344 0 46 20.097656 46 45zm0 0" fill="#ffd400"/><path d="m497 270h-482c-8.402344 0-15 6.597656-15 15v30c0 8.398438 6.597656 15 15 15h482c8.402344 0 15-6.601562 15-15v-30c0-8.402344-6.597656-15-15-15zm0 0" fill="#ffd400"/><g fill="#fdbf00"><path d="m286 30h-30v-30h30c19.5 0 36 12.597656 42.300781 30h17.699219c24.902344 0 46 20.097656 46 45v90c0 8.398438-6.597656 15-15 15s-15-6.601562-15-15v-90c0-8.402344-7.597656-15-16-15h-15v75c0 8.398438-6.597656 15-15 15s-15-6.601562-15-15v-90c0-8.402344-6.597656-15-15-15zm0 0"/><path d="m512 285v30c0 8.398438-6.597656 15-15 15h-241v-60h241c8.402344 0 15 6.597656 15 15zm0 0"/></g></svg>