<svg height="512pt" viewBox="0 0 512 512" width="512pt" xmlns="http://www.w3.org/2000/svg"><path d="m452 180v256h-392v-256l196-150zm0 0" fill="#faecd8"/><path d="m452 180v256h-196v-406zm0 0" fill="#f4d7af"/><path d="m120.589844 123.03125c.140625-.105469.269531-.210938.410156-.316406v-77.714844c0-8.285156-6.714844-15-15-15h-31c-8.285156 0-15 6.714844-15 15v124.433594c19.070312-14.832032 40.757812-30.945313 60.589844-46.402344zm0 0" fill="#3e5959"/><path d="m256 150c-24.902344 0-45 20.097656-45 45 0 24.898438 20.097656 45 45 45s45-20.101562 45-45c0-24.902344-20.097656-45-45-45zm0 0" fill="#78b9eb"/><path d="m256 240v-90c24.902344 0 45 20.097656 45 45 0 24.898438-20.097656 45-45 45zm0 0" fill="#5aaae7"/><path d="m362.746094 436h-213.492188l-26.753906 54.398438c-2.101562 4.5-2.101562 10.203124.601562 14.402343 3 4.5 7.800782 7.199219 12.898438 7.199219h240c5.101562 0 9.902344-2.699219 12.902344-7.199219 2.699218-4.199219 2.699218-9.902343.601562-14.402343zm0 0" fill="#ffd400"/><path d="m362.746094 436h-106.746094v76h120c5.097656 0 9.902344-2.699219 12.898438-7.199219 2.703124-4.199219 2.703124-9.902343.601562-14.402343zm0 0" fill="#ff9f00"/><path d="m512 436c0 8.398438-6.597656 15-15 15h-482c-8.402344 0-15-6.601562-15-15 0-8.402344 6.597656-15 15-15h482c8.402344 0 15 6.597656 15 15zm0 0" fill="#90e36a"/><path d="m512 436c0 8.398438-6.597656 15-15 15h-241v-30h241c8.402344 0 15 6.597656 15 15zm0 0" fill="#56c225"/><path d="m361 285v166h-210v-166c0-8.402344 6.597656-15 15-15h180c8.402344 0 15 6.597656 15 15zm0 0" fill="#3e5959"/><path d="m361 285v166h-105v-181h90c8.402344 0 15 6.597656 15 15zm0 0" fill="#384949"/><path d="m181 300h60v121h-60zm0 0" fill="#96c8ef"/><path d="m271 300h60v121h-60zm0 0" fill="#78b9eb"/><path d="m511.699219 198.898438c.601562 3.902343-.300781 7.800781-2.699219 11.101562l-18 24c-4.800781 6.597656-14.097656 8.101562-20.699219 3l-214.300781-165.601562-214 165.601562c-2.699219 2.097656-6 3-9 3-4.5 0-9-2.101562-12-6l-18-24c-2.398438-3.300781-3.300781-7.199219-2.699219-11.101562.300781-4.199219 2.699219-7.5 6-9.898438l240.699219-186c2.699219-1.800781 6-3 9-3s6.300781 1.199219 9 3l240.699219 186c3.300781 2.101562 5.699219 5.699219 6 9.898438zm0 0" fill="#cb671b"/><path d="m511.699219 198.898438c.601562 3.902343-.300781 7.800781-2.699219 11.101562l-18 24c-4.800781 6.597656-14.097656 8.101562-20.699219 3l-214.300781-165.601562v-71.398438c3 0 6.300781 1.199219 9 3l240.699219 186c3.300781 2.101562 5.699219 5.699219 6 9.898438zm0 0" fill="#bc5f19"/></svg>